<?xml version="1.0" encoding="UTF-8" standalone="no"?>
<!-- Created with Inkscape (http://www.inkscape.org/) -->

<svg
   xmlns:dc="http://purl.org/dc/elements/1.1/"
   xmlns:cc="http://creativecommons.org/ns#"
   xmlns:rdf="http://www.w3.org/1999/02/22-rdf-syntax-ns#"
   xmlns:svg="http://www.w3.org/2000/svg"
   xmlns="http://www.w3.org/2000/svg"
   xmlns:sodipodi="http://sodipodi.sourceforge.net/DTD/sodipodi-0.dtd"
   xmlns:inkscape="http://www.inkscape.org/namespaces/inkscape"
   width="400"
   height="400"
   id="svg2"
   version="1.1"
   inkscape:version="0.48.4 r9939"
   sodipodi:docname="full-logo-inkscape.svg">
  <title
     id="title4524">Axle Logo</title>
  <defs
     id="defs4" />
  <sodipodi:namedview
     id="base"
     pagecolor="#252323"
     bordercolor="#666666"
     borderopacity="1.0"
     inkscape:pageopacity="0"
     inkscape:pageshadow="2"
     inkscape:zoom="2.58"
     inkscape:cx="103.90713"
     inkscape:cy="262.2192"
     inkscape:document-units="px"
     inkscape:current-layer="layer3"
     showgrid="false"
     inkscape:window-width="1366"
     inkscape:window-height="738"
     inkscape:window-x="0"
     inkscape:window-y="0"
     inkscape:window-maximized="0"
     showborder="false"
     inkscape:showpageshadow="true"
     showguides="false">
    <sodipodi:guide
       position="0,0"
       orientation="0,400"
       id="guide4622" />
    <sodipodi:guide
       position="400,0"
       orientation="-400,0"
       id="guide4624" />
    <sodipodi:guide
       position="400,400"
       orientation="0,-400"
       id="guide4626" />
    <sodipodi:guide
       position="0,400"
       orientation="400,0"
       id="guide4628" />
  </sodipodi:namedview>
  <metadata
     id="metadata7">
    <rdf:RDF>
      <cc:Work
         rdf:about="">
        <dc:format>image/svg+xml</dc:format>
        <dc:type
           rdf:resource="http://purl.org/dc/dcmitype/StillImage" />
        <dc:title>Axle Logo</dc:title>
        <dc:creator>
          <cc:Agent>
            <dc:title>Phil Jackson</dc:title>
          </cc:Agent>
        </dc:creator>
        <dc:rights>
          <cc:Agent>
            <dc:title>All rights reserved</dc:title>
          </cc:Agent>
        </dc:rights>
      </cc:Work>
    </rdf:RDF>
  </metadata>
  <g
     inkscape:groupmode="layer"
     id="layer4"
     inkscape:label="background"
     style="display:inline">
    <path
       style="fill:#252323;fill-opacity:1;stroke:none;display:inline"
       d="M 0,0 0,81.375 0,100 0,318.625 C 0,363.71395 36.286048,400 81.375,400 l 237.25,0 C 363.71395,400 400,363.71395 400,318.625 l 0,-237.25 C 400,36.286048 363.71395,0 318.625,0 L 100,0 81.375,0 0,0 z"
       id="rect4463"
       inkscape:connector-curvature="0" />
  </g>
  <g
     inkscape:groupmode="layer"
     id="layer1"
     inkscape:label="small cog"
     style="display:inline"
     transform="translate(0,-652.36218)">
    <path
       style="fill:#e6e6e6;fill-opacity:1;stroke:none"
       d="M 109.5625 49.4375 C 106.09633 49.67988 102.5861 50.18475 99.09375 51 C 98.817271 51.0645 98.556 51.15053 98.28125 51.21875 C 97.828733 51.32957 97.354092 51.44215 96.90625 51.5625 L 95 61.28125 C 92.45055 62.18007 90.001726 63.24814 87.65625 64.46875 L 79.34375 59.15625 C 75.639994 61.45381 72.224378 64.09598 69.09375 67.03125 L 71.9375 76.59375 C 70.206679 78.48998 68.58235 80.48946 67.125 82.59375 L 57.3125 81.75 C 55.086853 85.53557 53.249326 89.54711 51.8125 93.71875 L 58.78125 100.84375 C 58.176962 103.18125 57.709627 105.5799 57.40625 108 L 48.3125 111.8125 C 48.095287 116.22665 48.321844 120.7081 49.03125 125.21875 L 58.53125 128.3125 C 59.065863 130.55536 59.722444 132.7319 60.5 134.84375 L 54.21875 142.5 C 56.138923 146.70077 58.469482 150.62758 61.15625 154.25 L 71.03125 152.5625 C 72.460856 154.19905 73.964801 155.76326 75.5625 157.21875 L 73.53125 166.90625 C 73.878066 167.17682 74.241369 167.42409 74.59375 167.6875 C 80.692184 155.43709 88.553996 144.23027 97.8125 134.34375 C 93.10555 130.41528 89.831074 124.75489 89.03125 118.1875 C 87.362052 104.48165 97.137901 92.012948 110.84375 90.34375 C 111.70037 90.239425 112.53042 90.173129 113.375 90.15625 C 123.57745 89.952358 132.74848 95.992419 136.75 105.0625 C 148.83212 98.934704 161.93476 94.504253 175.71875 92.09375 C 175.59498 91.759323 175.47276 91.424737 175.34375 91.09375 L 165.5 90.375 C 164.36502 88.00433 163.08297 85.74986 161.65625 83.59375 L 165.96875 74.625 C 163.30823 71.21623 160.33504 68.10887 157.09375 65.3125 L 148.03125 69.21875 C 145.86995 67.61901 143.61336 66.18731 141.25 64.90625 L 140.875 55 C 136.99504 53.26525 132.96128 51.89843 128.78125 50.9375 L 122.5625 58.625 C 119.89541 58.22229 117.17889 58.01626 114.4375 58 L 109.5625 49.4375 z "
       id="path4032"
       transform="translate(0,652.36218)" />
  </g>
  <g
     inkscape:groupmode="layer"
     id="layer3"
     inkscape:label="medium cog"
     style="display:inline"
     transform="translate(0,-652.36218)">
    <path
       style="fill:#e68b00;fill-opacity:1;stroke:none;display:inline"
       d="M 284.65625 27.34375 C 282.01322 27.323476 279.38606 27.444545 276.78125 27.65625 L 273.9375 41.28125 C 270.70411 41.71099 267.49398 42.35389 264.375 43.1875 L 256.34375 31.78125 C 251.32839 33.43076 246.46571 35.5058 241.84375 38 L 244.75 51.53125 C 241.87017 53.26634 239.12993 55.17998 236.5 57.28125 L 224.59375 50.15625 C 220.73309 53.62132 217.13276 57.43973 213.90625 61.5625 L 221.96875 72.625 C 219.92926 75.49031 218.08039 78.48719 216.4375 81.65625 L 202.78125 80.0625 C 201.35255 83.26165 200.12079 86.585529 199.0625 90 C 199.37444 89.997956 199.68758 90 200 90 C 211.91244 90 223.48949 91.481302 234.53125 94.28125 C 243.17815 75.337023 262.32505 62.41201 284.15625 62.5625 C 285.0814 62.568877 286.00343 62.602444 286.9375 62.65625 C 316.82782 64.378039 339.65929 89.984681 337.9375 119.875 C 337.07159 134.90728 330.17348 148.16207 319.71875 157.40625 C 325.83475 167.47184 330.71711 178.38568 334.15625 189.90625 C 337.02772 187.93232 339.78084 185.80027 342.40625 183.5 L 336.90625 171.1875 C 339.69503 168.46042 342.26746 165.49638 344.625 162.34375 L 357.3125 166.6875 C 360.13603 162.54494 362.63152 158.12435 364.75 153.46875 L 354.59375 144.375 C 355.92454 140.94222 357.03256 137.3507 357.875 133.65625 L 371.3125 132.4375 C 372.25442 127.30337 372.76423 122.18337 372.8125 117.125 L 359.6875 112.90625 C 359.51343 109.34091 359.09864 105.82935 358.4375 102.375 L 370.375 95.6875 C 369.15811 90.59233 367.50581 85.63574 365.4375 80.875 L 351.625 82.375 C 350.11034 79.37362 348.3933 76.49183 346.5 73.71875 L 354.78125 62.625 C 351.61554 58.42903 348.09519 54.52815 344.21875 50.9375 L 332.15625 57.96875 C 329.66767 55.91209 327.01077 54.01833 324.25 52.28125 L 327.34375 38.65625 C 322.78366 36.1029 317.95047 33.92942 312.875 32.1875 L 304.71875 43.5625 C 303.18618 43.12633 301.64077 42.71923 300.0625 42.375 C 298.48984 42.03199 296.9132 41.74108 295.34375 41.5 L 292.625 27.78125 C 289.95493 27.51687 287.29928 27.364024 284.65625 27.34375 z "
       transform="translate(0,652.36218)"
       id="path4255-3" />
  </g>
  <g
     inkscape:groupmode="layer"
     id="layer2"
     inkscape:label="main cog"
     style="display:inline"
     transform="translate(0,-652.36218)">
    <path
       style="fill:#db463c;fill-opacity:1;stroke:none"
       d="M 185.4375 105.3125 C 177.95509 106.18475 170.70601 107.73573 163.6875 109.875 L 163.84375 129.4375 C 159.53759 130.9941 155.34093 132.79866 151.3125 134.875 L 136.875 121.625 C 130.48969 125.38767 124.46811 129.72773 118.875 134.53125 L 126.90625 152.1875 C 123.47548 155.42875 120.25974 158.89378 117.28125 162.5625 L 98.8125 156.375 C 94.554024 162.28236 90.785761 168.56777 87.59375 175.1875 L 101.96875 187.9375 C 100.02863 192.47749 98.399026 197.16203 97.09375 202 L 77.84375 203.875 C 76.39628 210.82717 75.556559 217.98905 75.3125 225.3125 L 93.40625 231.0625 C 93.45757 236.37337 93.890335 241.58885 94.6875 246.6875 L 78.0625 256.125 C 79.575922 263.14409 81.647046 269.94244 84.28125 276.46875 L 102.96875 274.34375 C 105.25911 279.37293 107.92838 284.17545 110.9375 288.75 L 99.71875 304 C 103.88887 309.63993 108.49334 314.92541 113.53125 319.78125 L 129.625 310.25 C 133.89381 314.01533 138.44824 317.48102 143.28125 320.53125 L 139.21875 338.875 C 145.22672 342.24025 151.55735 345.12296 158.125 347.46875 L 168.9375 332.25 C 174.43286 333.92562 180.10553 335.19867 185.9375 335.96875 L 189.65625 354.21875 C 193.06775 354.49955 196.51629 354.6875 200 354.6875 C 203.48183 354.6875 206.93415 354.49915 210.34375 354.21875 L 214.0625 335.96875 C 219.89446 335.19867 225.56716 333.92562 231.0625 332.25 L 241.875 347.46875 C 248.44632 345.12279 254.77043 342.24174 260.78125 338.875 L 256.71875 320.53125 C 261.55177 317.48102 266.10618 314.01533 270.375 310.25 L 286.46875 319.78125 C 291.50492 314.92599 296.11262 309.63918 300.28125 304 L 289.0625 288.75 C 292.0716 284.17545 294.74089 279.37293 297.03125 274.34375 L 315.71875 276.46875 C 318.35213 269.94244 320.42459 263.14409 321.9375 256.125 L 305.3125 246.6875 C 306.11086 241.58122 306.54349 236.35034 306.59375 231.03125 L 324.6875 225.3125 C 324.44353 217.98905 323.6032 210.82717 322.15625 203.875 L 302.90625 202 C 301.60097 197.16203 299.97137 192.47749 298.03125 187.9375 L 312.40625 175.1875 C 309.21306 168.5633 305.44837 162.25454 301.1875 156.34375 L 282.71875 162.5625 C 279.74354 158.89906 276.52004 155.42454 273.09375 152.1875 L 281.125 134.53125 C 275.52793 129.72329 269.51581 125.39012 263.125 121.625 L 248.6875 134.875 C 244.65908 132.79866 240.4624 130.99409 236.15625 129.4375 L 236.3125 109.84375 C 229.29437 107.70584 222.04477 106.18333 214.5625 105.3125 L 206.75 123.3125 C 204.51754 123.17263 202.26763 123.125 200 123.125 C 197.74042 123.125 195.50593 123.17377 193.28125 123.3125 L 185.4375 105.3125 z M 200 153.4375 C 242.2843 153.4375 276.5625 187.7157 276.5625 230 C 276.5625 272.2843 242.2843 306.5625 200 306.5625 C 157.7157 306.5625 123.4375 272.2843 123.4375 230 C 123.4375 187.7157 157.7157 153.4375 200 153.4375 z "
       transform="translate(0,652.36218)"
       id="path4255" />
  </g>
</svg>
