<?xml version="1.0" encoding="UTF-8" standalone="no"?>
<!-- Created with Inkscape (http://www.inkscape.org/) -->

<svg
   xmlns:dc="http://purl.org/dc/elements/1.1/"
   xmlns:cc="http://creativecommons.org/ns#"
   xmlns:rdf="http://www.w3.org/1999/02/22-rdf-syntax-ns#"
   xmlns:svg="http://www.w3.org/2000/svg"
   xmlns="http://www.w3.org/2000/svg"
   xmlns:sodipodi="http://sodipodi.sourceforge.net/DTD/sodipodi-0.dtd"
   xmlns:inkscape="http://www.inkscape.org/namespaces/inkscape"
   width="744.09448819"
   height="1052.3622047"
   id="svg4201"
   version="1.1"
   inkscape:version="0.48.4 r9939"
   sodipodi:docname="text-logo.svg">
  <defs
     id="defs4203" />
  <sodipodi:namedview
     id="base"
     pagecolor="#ffffff"
     bordercolor="#666666"
     borderopacity="1.0"
     inkscape:pageopacity="0.0"
     inkscape:pageshadow="2"
     inkscape:zoom="0.49497475"
     inkscape:cx="-18.373111"
     inkscape:cy="545.39178"
     inkscape:document-units="px"
     inkscape:current-layer="layer1"
     showgrid="false"
     inkscape:window-width="1366"
     inkscape:window-height="738"
     inkscape:window-x="0"
     inkscape:window-y="0"
     inkscape:window-maximized="0" />
  <metadata
     id="metadata4206">
    <rdf:RDF>
      <cc:Work
         rdf:about="">
        <dc:format>image/svg+xml</dc:format>
        <dc:type
           rdf:resource="http://purl.org/dc/dcmitype/StillImage" />
      </cc:Work>
    </rdf:RDF>
  </metadata>
  <g
     inkscape:label="Layer 1"
     inkscape:groupmode="layer"
     id="layer1">
    <g
       style="font-size:107.91810608px;font-style:normal;font-variant:normal;font-weight:normal;font-stretch:normal;line-height:125%;letter-spacing:0px;word-spacing:0px;fill:#000000;fill-opacity:1;stroke:none;font-family:Raleway;-inkscape-font-specification:Raleway"
       id="text4214"
       transform="matrix(1.1418997,0,0,1.1418997,-53.247832,213.69186)">
      <path
         d="m 183.79762,301.55417 32.05168,-76.62186 6.15133,0 32.05168,76.62186 -8.09386,0 -9.92847,-23.95782 -34.42587,0 -9.82055,23.95782 -7.98594,0 m 35.1813,-67.77257 -15.75604,37.87925 31.08041,0 -15.32437,-37.87925"
         id="path4219"
         inkscape:connector-curvature="0" />
      <path
         d="m 292.22159,302.63335 c -4.74843,0 -8.95723,-1.1871 -12.62642,-3.5613 -3.66923,-2.44614 -6.61899,-5.50381 -8.84928,-9.17304 l 0,34.64172 -7.33843,0 0,-79.21189 6.583,0 0,10.89972 c 2.30224,-3.52527 5.28797,-6.36711 8.9572,-8.52553 3.66919,-2.23025 7.66216,-3.3454 11.97891,-3.34546 3.88502,6e-5 7.44631,0.82743 10.6839,2.48212 3.30943,1.58285 6.15128,3.74121 8.52553,6.47509 2.37414,2.66202 4.20874,5.75567 5.50382,9.28095 1.3669,3.52536 2.05038,7.1586 2.05044,10.89973 -6e-5,3.95702 -0.61159,7.69818 -1.8346,11.22348 -1.22314,3.52534 -2.9858,6.61899 -5.28799,9.28096 -2.23036,2.66199 -4.92831,4.78437 -8.09386,6.36717 -3.0937,1.51085 -6.5111,2.26628 -10.25222,2.26628 m -2.05044,-6.47509 c 3.02167,1e-5 5.75559,-0.6475 8.20177,-1.94252 2.4461,-1.29501 4.53252,-2.98573 6.25925,-5.07215 1.79859,-2.15835 3.16555,-4.56852 4.10089,-7.23052 0.93524,-2.7339 1.40288,-5.53977 1.40294,-8.41761 -6e-5,-3.02167 -0.53965,-5.89949 -1.61878,-8.63345 -1.07923,-2.73388 -2.55411,-5.14405 -4.42464,-7.23051 -1.87063,-2.08637 -4.10093,-3.74111 -6.69092,-4.96423 -2.51813,-1.22303 -5.25205,-1.83456 -8.20178,-1.83461 -1.87061,5e-5 -3.81313,0.39575 -5.82757,1.1871 -2.0145,0.7195 -3.92105,1.72674 -5.71966,3.0217 -1.79866,1.22312 -3.34548,2.698 -4.64048,4.42465 -1.22309,1.65478 -1.97852,3.41744 -2.26628,5.28798 l 0,17.2669 c 0.86333,2.01449 1.94251,3.88507 3.23754,5.61174 1.36694,1.7267 2.8778,3.23756 4.53256,4.53256 1.72667,1.22308 3.56127,2.19435 5.50382,2.91379 2.01445,0.71946 4.06489,1.07919 6.15134,1.07918"
         id="path4221"
         inkscape:connector-curvature="0" />
      <path
         d="m 329.80238,301.55417 0,-56.22533 7.33844,0 0,56.22533 -7.33844,0 m 0,-67.98841 0,-10.79181 7.33844,0 0,10.79181 -7.33844,0"
         id="path4223"
         inkscape:connector-curvature="0" />
      <path
         d="m 346.72867,301.55417 32.05167,-76.62186 6.15133,0 32.05168,76.62186 -8.09386,0 -9.92846,-23.95782 -34.42588,0 -9.82054,23.95782 -7.98594,0 m 35.1813,-67.77257 -15.75605,37.87925 31.08042,0 -15.32437,-37.87925"
         id="path4225"
         inkscape:connector-curvature="0" />
      <path
         d="m 427.74144,245.32884 16.83522,22.01529 0.86335,1.61877 0.97126,-1.61877 16.72731,-22.01529 7.87802,0 -21.47571,28.27454 21.47571,27.95079 -7.87802,0 -16.72731,-21.90738 -0.97126,-1.51085 -0.86335,1.51085 -16.72731,21.90738 -7.98593,0 21.4757,-27.95079 -21.4757,-28.27454 7.87802,0"
         id="path4227"
         inkscape:connector-curvature="0" />
      <path
         d="m 480.62132,222.77395 7.33843,0 0,66.04588 c -2e-5,2.08643 0.57554,3.74117 1.72669,4.96424 1.15111,1.15113 2.76988,1.72669 4.85631,1.72668 0.79138,1e-5 1.72667,-0.10791 2.80587,-0.32375 1.07916,-0.21583 2.08639,-0.50361 3.02171,-0.86334 l 1.29502,5.93549 c -1.36699,0.57557 -3.05771,1.04321 -5.07215,1.40294 -1.94255,0.35972 -3.63327,0.53959 -5.07215,0.53959 -3.38145,0 -6.04343,-0.93529 -7.98594,-2.80587 -1.94254,-1.94253 -2.9138,-4.64048 -2.91379,-8.09386 l 0,-68.528"
         id="path4229"
         inkscape:connector-curvature="0" />
      <path
         d="m 533.35785,302.63335 c -4.10092,0 -7.87805,-0.75543 -11.3314,-2.26628 -3.4534,-1.5828 -6.43913,-3.70518 -8.95721,-6.36717 -2.5181,-2.73391 -4.49659,-5.86354 -5.93549,-9.38887 -1.36697,-3.52531 -2.05045,-7.30244 -2.05045,-11.33141 0,-3.95696 0.68348,-7.66214 2.05045,-11.11556 1.4389,-3.52528 3.41739,-6.58296 5.93549,-9.17304 2.51808,-2.66193 5.46784,-4.74834 8.84929,-6.25925 3.45335,-1.58274 7.23048,-2.37414 11.3314,-2.3742 4.10085,6e-5 7.84201,0.79146 11.22348,2.3742 3.45333,1.51091 6.40309,3.59732 8.84929,6.25925 2.44608,2.66203 4.35264,5.7197 5.71966,9.17304 1.3669,3.45342 2.05038,7.12263 2.05044,11.00765 -6e-5,0.57559 -0.036,1.15115 -0.10792,1.72669 -6e-5,0.57559 -0.036,0.97129 -0.10792,1.1871 l -48.02355,0 c 0.21582,3.02173 0.8993,5.82759 2.05044,8.41761 1.22306,2.5181 2.73391,4.71243 4.53256,6.583 1.87056,1.87059 3.99295,3.34547 6.36717,4.42464 2.44612,1.00725 5.03615,1.51086 7.7701,1.51086 1.87055,0 3.70515,-0.25181 5.50383,-0.75543 1.79859,-0.50361 3.45333,-1.18709 4.96423,-2.05044 1.51081,-0.86334 2.8418,-1.90655 3.99297,-3.12963 1.22302,-1.295 2.15831,-2.69794 2.80587,-4.2088 l 6.36717,1.72669 c -0.8634,2.08642 -2.08647,3.99297 -3.66922,5.71966 -1.58285,1.65475 -3.41745,3.12962 -5.50382,4.42464 -2.08646,1.22307 -4.38871,2.15836 -6.90676,2.80587 -2.51813,0.71945 -5.10816,1.07918 -7.7701,1.07918 m 20.72027,-32.1596 c -0.21589,-3.02167 -0.93534,-5.75559 -2.15836,-8.20177 -1.15118,-2.51805 -2.66203,-4.67641 -4.53256,-6.47509 -1.79868,-1.79859 -3.92107,-3.20152 -6.36717,-4.2088 -2.44618,-1.00719 -5.03621,-1.51081 -7.7701,-1.51086 -2.73396,5e-5 -5.32399,0.50367 -7.77011,1.51086 -2.44616,1.00728 -4.60452,2.41021 -6.47508,4.2088 -1.79865,1.79868 -3.27353,3.95704 -4.42464,6.47509 -1.0792,2.51812 -1.72671,5.25205 -1.94253,8.20177 l 41.44055,0"
         id="path4231"
         inkscape:connector-curvature="0" />
    </g>
    <g
       style="font-size:64px;font-style:normal;font-variant:normal;font-weight:normal;font-stretch:normal;line-height:125%;letter-spacing:0px;word-spacing:0px;fill:#000000;fill-opacity:1;stroke:none;font-family:Raleway;-inkscape-font-specification:Raleway"
       id="text4378">
      <path
         d="m 254.99024,739.2149 17.92,-45.44 7.168,0 17.856,45.44 -9.344,0 -4.16,-11.328 -15.936,0 -4.16,11.328 -9.344,0 m 21.504,-35.904 -6.528,18.368 12.864,0 -6.336,-18.368"
         style="font-weight:bold;-inkscape-font-specification:Raleway Bold"
         id="path4383" />
      <path
         d="m 321.98424,739.8549 c -2.60268,0 -4.88535,-0.576 -6.848,-1.728 -1.96268,-1.19466 -3.49868,-2.79466 -4.608,-4.8 l 0,19.52 -8.576,0 0,-47.168 7.488,0 0,5.76 c 1.23732,-1.96263 2.83732,-3.49863 4.8,-4.608 1.96265,-1.15196 4.22398,-1.72796 6.784,-1.728 2.26131,4e-5 4.35198,0.46937 6.272,1.408 1.91997,0.89604 3.56264,2.13337 4.928,3.712 1.40797,1.53603 2.49597,3.3707 3.264,5.504 0.81063,2.09069 1.21597,4.30936 1.216,6.656 -3e-5,2.43202 -0.3627,4.71468 -1.088,6.848 -0.72537,2.13335 -1.74937,3.98934 -3.072,5.568 -1.28003,1.57867 -2.83736,2.81601 -4.672,3.712 -1.79202,0.896 -3.75469,1.344 -5.888,1.344 m -2.816,-7.296 c 1.27998,10e-6 2.45331,-0.27732 3.52,-0.832 1.10931,-0.55465 2.04798,-1.30132 2.816,-2.24 0.76798,-0.93865 1.36531,-2.02665 1.792,-3.264 0.42664,-1.23731 0.63997,-2.51731 0.64,-3.84 -3e-5,-1.40798 -0.23469,-2.70931 -0.704,-3.904 -0.46936,-1.23731 -1.13069,-2.30397 -1.984,-3.2 -0.81069,-0.89597 -1.79202,-1.59997 -2.944,-2.112 -1.10935,-0.51197 -2.32535,-0.76797 -3.648,-0.768 -0.81068,3e-5 -1.64268,0.14936 -2.496,0.448 -0.85335,0.25603 -1.64268,0.64003 -2.368,1.152 -0.72534,0.51203 -1.38668,1.10936 -1.984,1.792 -0.55468,0.68269 -0.98134,1.42936 -1.28,2.24 l 0,7.872 c 0.76799,1.92002 1.94132,3.52001 3.52,4.8 1.57865,1.23735 3.28532,1.85601 5.12,1.856"
         style="font-weight:bold;-inkscape-font-specification:Raleway Bold"
         id="path4385" />
      <path
         d="m 342.45224,739.2149 0,-33.536 8.576,0 0,33.536 -8.576,0 m 0,-38.208 0,-8.512 8.576,0 0,8.512 -8.576,0"
         style="font-weight:bold;-inkscape-font-specification:Raleway Bold"
         id="path4387" />
      <path
         d="m 354.99024,739.2149 17.92,-45.44 7.168,0 17.856,45.44 -9.344,0 -4.16,-11.328 -15.936,0 -4.16,11.328 -9.344,0 m 21.504,-35.904 -6.528,18.368 12.864,0 -6.336,-18.368"
         style="font-weight:bold;-inkscape-font-specification:Raleway Bold"
         id="path4389" />
      <path
         d="m 407.26424,705.6789 7.168,10.496 0.576,1.152 0.576,-1.152 7.168,-10.496 8.832,0 -11.904,16.832 12.096,16.704 -8.832,0 -7.36,-10.432 -0.576,-1.088 -0.576,1.088 -7.36,10.432 -8.832,0 12.16,-16.704 -11.968,-16.832 8.832,0"
         style="font-weight:bold;-inkscape-font-specification:Raleway Bold"
         id="path4391" />
      <path
         d="m 435.63824,692.4949 8.576,0 0,35.584 c -1e-5,2.60268 1.17332,3.90401 3.52,3.904 0.46932,10e-6 1.00265,-0.0853 1.6,-0.256 0.63999,-0.17065 1.23732,-0.36265 1.792,-0.576 l 1.152,6.848 c -1.15202,0.55467 -2.49601,0.98134 -4.032,1.28 -1.53601,0.29867 -2.92268,0.448 -4.16,0.448 -2.68801,0 -4.77867,-0.704 -6.272,-2.112 -1.45067,-1.45066 -2.176,-3.49866 -2.176,-6.144 l 0,-38.976"
         style="font-weight:bold;-inkscape-font-specification:Raleway Bold"
         id="path4393" />
      <path
         d="m 471.56824,739.8549 c -2.68801,0 -5.12001,-0.448 -7.296,-1.344 -2.17601,-0.93866 -4.032,-2.19733 -5.568,-3.776 -1.536,-1.57866 -2.73067,-3.41332 -3.584,-5.504 -0.81067,-2.09065 -1.216,-4.28798 -1.216,-6.592 0,-2.38931 0.40533,-4.62931 1.216,-6.72 0.81067,-2.1333 1.984,-3.9893 3.52,-5.568 1.536,-1.6213 3.39199,-2.9013 5.568,-3.84 2.21866,-0.93863 4.69332,-1.40796 7.424,-1.408 2.73065,4e-5 5.16265,0.46937 7.296,1.408 2.17597,0.9387 4.01064,2.19737 5.504,3.776 1.53597,1.5787 2.68797,3.41336 3.456,5.504 0.81063,2.09069 1.21597,4.26669 1.216,6.528 -3e-5,0.55469 -0.0214,1.08802 -0.064,1.6 -3e-5,0.51202 -0.0427,0.93869 -0.128,1.28 l -25.92,0 c 0.12799,1.32268 0.44799,2.49602 0.96,3.52 0.51199,1.02401 1.17332,1.89868 1.984,2.624 0.81066,0.72535 1.72799,1.28001 2.752,1.664 1.02399,0.38401 2.09065,0.57601 3.2,0.576 1.70665,10e-6 3.30665,-0.40532 4.8,-1.216 1.53598,-0.85332 2.58131,-1.96265 3.136,-3.328 l 7.36,2.048 c -1.23736,2.56001 -3.22136,4.67201 -5.952,6.336 -2.68802,1.62134 -5.90935,2.432 -9.664,2.432 m 8.704,-20.224 c -0.21336,-2.51731 -1.15202,-4.52264 -2.816,-6.016 -1.62135,-1.53597 -3.60535,-2.30397 -5.952,-2.304 -1.15201,3e-5 -2.24001,0.21337 -3.264,0.64 -0.98134,0.38403 -1.85601,0.9387 -2.624,1.664 -0.76801,0.72536 -1.40801,1.60003 -1.92,2.624 -0.46934,1.02403 -0.74667,2.15469 -0.832,3.392 l 17.408,0"
         style="font-weight:bold;-inkscape-font-specification:Raleway Bold"
         id="path4395" />
    </g>
  </g>
</svg>
